<svg width="24" height="30" viewBox="0 0 24 30" fill="none" xmlns="http://www.w3.org/2000/svg">
<g clip-path="url(#clip0_1_160)">
<path d="M7 15.9999H3C2.73478 15.9999 2.48043 16.1053 2.29289 16.2928C2.10536 16.4804 2 16.7347 2 16.9999V21.9999H8V16.9999C8 16.7347 7.89464 16.4804 7.70711 16.2928C7.51957 16.1053 7.26522 15.9999 7 15.9999Z" fill="#B5B5BE"/>
<path d="M14 9.99992H10C9.73478 9.99992 9.48043 10.1053 9.29289 10.2928C9.10536 10.4804 9 10.7347 9 10.9999V21.9999H15V10.9999C15 10.7347 14.8946 10.4804 14.7071 10.2928C14.5196 10.1053 14.2652 9.99992 14 9.99992Z" fill="#B5B5BE"/>
<path d="M21 12.9999H17C16.7348 12.9999 16.4804 13.1053 16.2929 13.2928C16.1054 13.4804 16 13.7347 16 13.9999V21.9999H22V13.9999C22 13.7347 21.8946 13.4804 21.7071 13.2928C21.5196 13.1053 21.2652 12.9999 21 12.9999Z" fill="#B5B5BE"/>
<path d="M12 1.99992L11 3.99992L9 4.29192L10.667 5.66692L10.146 7.99992L12 6.66692L13.854 7.99992L13.333 5.66692L15 4.29192L13 3.99992L12 1.99992Z" fill="#B5B5BE"/>
</g>
<defs>
<clipPath id="clip0_1_160">
<rect width="24" height="30" fill="white"/>
</clipPath>
</defs>
</svg>
